<svg width="20" height="20" fill="none" xmlns="http://www.w3.org/2000/svg"><path fill-rule="evenodd" clip-rule="evenodd" d="M8.704 1.519c-.67 0-1.24.466-1.4 1.094h5.382a1.453 1.453 0 0 0-1.4-1.094H8.704Zm5.503 1.094h1.981C18.29 2.613 20 4.344 20 6.47c0 0-.06.9-.08 2.154a.33.33 0 0 1-.13.255c-.48.355-.92.65-.96.67-1.661 1.113-3.591 1.897-5.647 2.287a.318.318 0 0 1-.335-.163 3.296 3.296 0 0 0-2.853-1.649 3.35 3.35 0 0 0-2.872 1.643.319.319 0 0 1-.333.16 15.49 15.49 0 0 1-5.62-2.269l-.96-.668a.286.286 0 0 1-.13-.243C.05 8.132 0 6.471 0 6.471c0-2.127 1.71-3.858 3.812-3.858h1.97C5.974 1.144 7.205 0 8.705 0h2.582c1.5 0 2.731 1.144 2.921 2.613Zm5.453 8.202-.04.02c-2.021 1.357-4.452 2.259-7.004 2.633a.753.753 0 0 1-.82-.546 1.816 1.816 0 0 0-1.781-1.378h-.03c-.85 0-1.56.547-1.78 1.378a.753.753 0 0 1-.821.546C4.832 13.094 2.4 12.192.38 10.835c-.01-.01-.11-.07-.19-.02-.09.05-.09.172-.09.172l.07 5.165C.17 18.279 1.87 20 3.972 20h12.046c2.101 0 3.802-1.721 3.802-3.848l.08-5.165s0-.121-.09-.172c-.05-.03-.11-.02-.15 0Zm-8.915 4.243c0 .426-.33.76-.75.76a.754.754 0 0 1-.75-.76v-1.306c0-.415.34-.76.75-.76.42 0 .75.345.75.76v1.306Z" fill="#F85E9F"/></svg>