<svg width="224" height="32" fill="none" xmlns="http://www.w3.org/2000/svg"><path d="M71.891 19.092a1.467 1.467 0 0 0-.425 1.293l1.185 6.56a1.44 1.44 0 0 1-.6 1.44 1.468 1.468 0 0 1-1.56.107l-5.905-3.08a1.51 1.51 0 0 0-.667-.175h-.361a1.083 1.083 0 0 0-.36.12l-5.907 3.095c-.292.147-.622.199-.947.147a1.482 1.482 0 0 1-1.186-1.695l1.186-6.56a1.492 1.492 0 0 0-.425-1.305l-4.814-4.667a1.44 1.44 0 0 1-.36-1.507 1.497 1.497 0 0 1 1.186-1l6.627-.961a1.483 1.483 0 0 0 1.173-.812l2.92-5.987c.07-.133.159-.256.267-.36l.12-.093a.893.893 0 0 1 .215-.173l.145-.054.226-.093h.562c.501.052.942.352 1.173.8l2.959 5.96c.213.436.628.739 1.106.812l6.627.961c.56.08 1.028.467 1.213 1a1.448 1.448 0 0 1-.386 1.507l-4.987 4.72ZM119.891 19.092a1.467 1.467 0 0 0-.425 1.293l1.185 6.56c.1.556-.134 1.119-.6 1.44a1.468 1.468 0 0 1-1.56.107l-5.905-3.08a1.507 1.507 0 0 0-.667-.175h-.361a1.086 1.086 0 0 0-.36.12l-5.907 3.095c-.292.147-.622.199-.946.147a1.482 1.482 0 0 1-1.187-1.695l1.187-6.56a1.492 1.492 0 0 0-.426-1.305l-4.814-4.667a1.44 1.44 0 0 1-.36-1.507 1.497 1.497 0 0 1 1.186-1l6.627-.961a1.481 1.481 0 0 0 1.173-.812l2.92-5.987c.07-.133.159-.256.267-.36l.12-.093a.903.903 0 0 1 .215-.173l.145-.054.227-.093h.561a1.49 1.49 0 0 1 1.173.8l2.959 5.96c.213.436.628.739 1.107.812l6.626.961c.56.08 1.028.467 1.214 1a1.45 1.45 0 0 1-.387 1.507l-4.987 4.72ZM167.891 19.092a1.467 1.467 0 0 0-.425 1.293l1.185 6.56c.1.556-.134 1.119-.6 1.44a1.468 1.468 0 0 1-1.56.107l-5.905-3.08a1.507 1.507 0 0 0-.667-.175h-.361a1.086 1.086 0 0 0-.36.12l-5.907 3.095c-.292.147-.622.199-.946.147a1.482 1.482 0 0 1-1.187-1.695l1.187-6.56a1.492 1.492 0 0 0-.426-1.305l-4.814-4.667a1.439 1.439 0 0 1-.359-1.507 1.498 1.498 0 0 1 1.185-1l6.627-.961a1.481 1.481 0 0 0 1.173-.812l2.92-5.987c.07-.133.159-.256.267-.36l.12-.093a.903.903 0 0 1 .215-.173l.145-.054.227-.093h.561a1.49 1.49 0 0 1 1.173.8l2.959 5.96c.213.436.628.739 1.107.812l6.626.961c.56.08 1.028.467 1.214 1a1.45 1.45 0 0 1-.387 1.507l-4.987 4.72ZM215.891 19.092a1.467 1.467 0 0 0-.425 1.293l1.185 6.56c.1.556-.134 1.119-.6 1.44a1.468 1.468 0 0 1-1.56.107l-5.905-3.08a1.507 1.507 0 0 0-.667-.175h-.361a1.086 1.086 0 0 0-.36.12l-5.907 3.095c-.292.147-.622.199-.946.147a1.482 1.482 0 0 1-1.187-1.695l1.187-6.56a1.492 1.492 0 0 0-.426-1.305l-4.814-4.667a1.439 1.439 0 0 1-.359-1.507 1.498 1.498 0 0 1 1.185-1l6.627-.961a1.481 1.481 0 0 0 1.173-.812l2.92-5.987c.07-.133.159-.256.267-.36l.12-.093a.903.903 0 0 1 .215-.173l.145-.054.227-.093h.561a1.49 1.49 0 0 1 1.173.8l2.959 5.96c.213.436.628.739 1.107.812l6.626.961c.56.08 1.028.467 1.214 1a1.45 1.45 0 0 1-.387 1.507l-4.987 4.72Z" fill="#FACD49"/></svg>