<svg width="24" height="24" fill="none" xmlns="http://www.w3.org/2000/svg"><path d="M17.918 14.32a1.1 1.1 0 0 0-.319.97l.89 4.92a1.08 1.08 0 0 1-.45 1.08 1.1 1.1 0 0 1-1.17.08l-4.43-2.31a1.13 1.13 0 0 0-.5-.131h-.27a.812.812 0 0 0-.27.09l-4.43 2.321c-.22.11-.468.149-.71.11a1.112 1.112 0 0 1-.89-1.271l.89-4.92a1.119 1.119 0 0 0-.32-.979l-3.61-3.5a1.08 1.08 0 0 1-.27-1.13c.134-.396.476-.685.89-.75l4.97-.721c.377-.039.71-.269.88-.609l2.19-4.49c.051-.1.118-.192.2-.27l.09-.07a.671.671 0 0 1 .16-.13l.11-.04.17-.07h.42c.376.039.707.264.88.6l2.22 4.47c.16.327.47.554.83.609l4.97.721c.42.06.77.35.91.75.13.401.017.841-.29 1.13l-3.74 3.54Z" fill="#FF5722"/></svg>