<svg width="28" height="24" fill="none" xmlns="http://www.w3.org/2000/svg"><path fill-rule="evenodd" clip-rule="evenodd" d="M20.586 0a6.743 6.743 0 0 1 6.748 6.733v10.534c0 3.72-3.027 6.733-6.748 6.733H7.414C3.693 24 .667 20.987.667 17.267V6.733A6.734 6.734 0 0 1 7.414 0h13.172Zm2.121 8.72.107-.107a1.031 1.031 0 0 0-.015-1.333 1.121 1.121 0 0 0-.705-.347c-.28-.014-.547.08-.748.267L15.334 12a2.088 2.088 0 0 1-2.667 0l-6-4.8c-.414-.307-.988-.267-1.333.093-.36.36-.4.934-.095 1.334l.175.173 6.067 4.733a4.191 4.191 0 0 0 2.6.907c.945 0 1.866-.32 2.612-.907l6.014-4.813Z" fill="#191825" fill-opacity=".75"/></svg>