<svg width="36" height="40" fill="none" xmlns="http://www.w3.org/2000/svg"><path fill-rule="evenodd" clip-rule="evenodd" d="m26.822 1.537.002 1.5c5.509.431 9.148 4.185 9.154 9.943L36 29.83c.008 6.277-3.936 10.139-10.256 10.149l-15.44.02C4.022 40.008.03 36.054.022 29.759L0 13.105C-.008 7.31 3.503 3.566 9.012 3.06L9.01 1.561C9.008.681 9.66.02 10.53.02c.869-.002 1.52.658 1.522 1.537l.002 1.4 11.73-.016-.002-1.4C23.779.661 24.43.002 25.299 0c.85-.002 1.52.658 1.523 1.537ZM3.043 13.723l29.896-.04v-.7c-.085-4.297-2.241-6.552-6.111-6.888l.002 1.54c0 .859-.67 1.54-1.519 1.54-.869.002-1.522-.677-1.522-1.537l-.002-1.619-11.73.016.002 1.617c0 .862-.65 1.541-1.518 1.541-.87.002-1.523-.675-1.523-1.537l-.002-1.54c-3.85.387-5.98 2.65-5.975 6.985l.002.622ZM24.48 22.81v.022c.02.92.77 1.617 1.68 1.597.889-.022 1.598-.784 1.578-1.703-.041-.88-.754-1.598-1.641-1.596-.908.02-1.62.76-1.617 1.68Zm1.63 8.975c-.907-.02-1.64-.778-1.642-1.697a1.666 1.666 0 0 1 1.617-1.703h.02c.928 0 1.68.757 1.68 1.697a1.689 1.689 0 0 1-1.674 1.703Zm-9.766-8.943c.04.92.792 1.637 1.7 1.597a1.646 1.646 0 0 0 1.558-1.721c-.021-.9-.752-1.6-1.64-1.598-.909.04-1.62.802-1.618 1.722Zm1.708 8.853c-.908.04-1.658-.678-1.7-1.597 0-.92.709-1.68 1.617-1.721a1.63 1.63 0 0 1 1.641 1.595 1.646 1.646 0 0 1-1.558 1.723ZM8.21 22.911c.04.919.791 1.639 1.7 1.597a1.642 1.642 0 0 0 1.556-1.721c-.02-.9-.75-1.6-1.641-1.598-.908.04-1.617.802-1.615 1.722Zm1.708 8.793c-.909.042-1.659-.678-1.7-1.597-.002-.92.708-1.681 1.617-1.721a1.63 1.63 0 0 1 1.64 1.597 1.642 1.642 0 0 1-1.557 1.721Z" fill="#fff"/></svg>