<svg width="40" height="32" fill="none" xmlns="http://www.w3.org/2000/svg"><path fill-rule="evenodd" clip-rule="evenodd" d="M39.574 13.078a1.47 1.47 0 0 1-1.025.413c-1.431 0-2.592 1.128-2.592 2.5 0 1.38 1.147 2.502 2.565 2.518.799.007 1.478.548 1.478 1.324v4.82C40 28.71 36.615 32 32.437 32h-6.305c-.652 0-1.18-.513-1.18-1.146v-4.059c0-.79-.639-1.41-1.451-1.41-.793 0-1.45.62-1.45 1.41v4.059c0 .633-.529 1.146-1.179 1.146H7.562C3.405 32 0 28.712 0 24.653v-4.82c0-.776.679-1.317 1.478-1.324 1.42-.016 2.565-1.137 2.565-2.518 0-1.335-1.122-2.35-2.592-2.35-.387 0-.755-.15-1.025-.413A1.388 1.388 0 0 1 0 12.233V7.366C0 3.315 3.412 0 7.582 0h13.29c.65 0 1.178.513 1.178 1.146v4.81c0 .771.658 1.41 1.451 1.41.812 0 1.45-.639 1.45-1.41v-4.81c0-.633.529-1.146 1.18-1.146h6.306C36.615 0 40 3.288 40 7.347v4.735c0 .376-.155.733-.426.996ZM23.501 21.74c.812 0 1.45-.638 1.45-1.409v-7.516c0-.77-.638-1.41-1.45-1.41-.793 0-1.45.64-1.45 1.41v7.516c0 .77.657 1.41 1.45 1.41Z" fill="#fff"/></svg>