<svg width="40" height="41" fill="none" xmlns="http://www.w3.org/2000/svg"><path fill-rule="evenodd" clip-rule="evenodd" d="M8.553 4.098c-1.43 1-2.725 2.183-3.848 3.514 4.59-.426 10.42.27 17.19 3.655 7.228 3.614 13.049 3.736 17.1 2.955a19.888 19.888 0 0 0-1.379-3.2c-4.637.49-10.582-.158-17.51-3.622-4.4-2.2-8.278-3.106-11.553-3.302Zm26.354 3.069A19.95 19.95 0 0 0 20 .5c-1.74 0-3.427.222-5.036.64 2.179.594 4.494 1.464 6.93 2.682 5.073 2.537 9.452 3.353 13.013 3.345Zm4.954 10.961c-4.894.966-11.652.768-19.755-3.284-7.576-3.787-13.606-3.74-17.672-2.836-.21.047-.415.096-.615.147a19.85 19.85 0 0 0-1.262 3.64c.325-.088.662-.17 1.01-.247C6.5 14.45 13.47 14.498 21.893 18.71c7.576 3.788 13.606 3.74 17.672 2.837.14-.031.277-.063.412-.096a20.296 20.296 0 0 0-.117-3.324Zm-.536 7.544c-4.847.848-11.408.522-19.22-3.383C12.53 18.5 6.5 18.549 2.435 19.452c-.903.2-1.715.445-2.431.703L0 20.5c0 11.046 8.954 20 20 20 9.257 0 17.045-6.29 19.325-14.828Z" fill="url('#paint0_linear_1156_735')"/><defs><linearGradient id="paint0_linear_1156_735" x1="36" y1="43.7" x2="-3.733" y2="36.093" gradientUnits="userSpaceOnUse"><stop stop-color="#5D50C6"/><stop offset="1" stop-color="#F85E9F"/></linearGradient></defs></svg>