<svg width="32" height="32" fill="none" xmlns="http://www.w3.org/2000/svg"><path d="M16 32c8.837 0 16-7.163 16-16S24.837 0 16 0 0 7.163 0 16s7.163 16 16 16Z" fill="#5D50C6"/><path d="M25.8 11.498a7.627 7.627 0 0 1-2.196.602 3.834 3.834 0 0 0 1.682-2.115 7.655 7.655 0 0 1-2.429.927 3.825 3.825 0 0 0-6.517 3.489 10.856 10.856 0 0 1-7.883-3.996A3.824 3.824 0 0 0 9.64 15.51a3.797 3.797 0 0 1-1.732-.479v.049a3.827 3.827 0 0 0 3.068 3.75 3.813 3.813 0 0 1-1.727.065 3.828 3.828 0 0 0 3.573 2.656 7.673 7.673 0 0 1-5.662 1.584 10.818 10.818 0 0 0 5.862 1.718c7.034 0 10.881-5.827 10.881-10.881 0-.166-.004-.331-.011-.495a7.755 7.755 0 0 0 1.909-1.98Z" fill="#F1F2F2"/></svg>