<svg width="34" height="40" viewBox="0 0 34 40" fill="none" xmlns="http://www.w3.org/2000/svg">
<path fill-rule="evenodd" clip-rule="evenodd" d="M0 16.6356C0 7.43578 7.68776 0 16.9868 0C26.3122 0 34 7.43578 34 16.6356C34 21.2714 32.314 25.5752 29.539 29.2232C26.4776 33.247 22.7044 36.753 18.457 39.5048C17.485 40.1408 16.6078 40.1888 15.5408 39.5048C11.2695 36.753 7.49618 33.247 4.461 29.2232C1.68396 25.5752 0 21.2714 0 16.6356ZM11.3885 17.1536C11.3885 20.2354 13.9034 22.6594 16.9868 22.6594C20.0724 22.6594 22.6116 20.2354 22.6116 17.1536C22.6116 14.0956 20.0724 11.5537 16.9868 11.5537C13.9034 11.5537 11.3885 14.0956 11.3885 17.1536Z" fill="white"/>
</svg>
