<svg width="36" height="40" viewBox="0 0 36 40" fill="none" xmlns="http://www.w3.org/2000/svg">
<path fill-rule="evenodd" clip-rule="evenodd" d="M26.8218 1.53724L26.8238 3.03648C32.333 3.46826 35.9724 7.22238 35.9782 12.9795L36 29.831C36.0078 36.108 32.0644 39.97 25.7436 39.98L10.3038 40C4.02237 40.008 0.0296332 36.054 0.0217332 29.759L1.33041e-05 13.1054C-0.0078867 7.31034 3.50305 3.56622 9.01233 3.06048L9.01035 1.56122C9.00839 0.681665 9.66001 0.0200045 10.5289 0.0200045C11.3977 0.0180045 12.0494 0.677665 12.0513 1.55722L12.0533 2.95652L23.7828 2.94054L23.7808 1.54124C23.7788 0.661685 24.4304 0.00200454 25.2994 4.53544e-06C26.1484 -0.00199546 26.8198 0.657685 26.8218 1.53724ZM3.04295 13.7231L32.9392 13.6832V12.9835C32.8544 8.68566 30.698 6.43079 26.8276 6.09496L26.8296 7.63418C26.8296 8.49376 26.1602 9.1754 25.3112 9.1754C24.4424 9.1774 23.7886 8.49774 23.7886 7.63818L23.7868 6.019L12.0573 6.03498L12.0592 7.65218C12.0592 8.51374 11.4096 9.19341 10.5407 9.19341C9.67187 9.19541 9.01825 8.51775 9.01825 7.65619L9.01629 6.11694C5.16571 6.50274 3.03505 8.76562 3.04097 13.1014L3.04295 13.7231ZM24.4798 22.8086V22.8306C24.4996 23.7502 25.25 24.4478 26.1602 24.4278C27.0488 24.4058 27.7578 23.6442 27.738 22.7246C27.6966 21.845 26.9836 21.1274 26.097 21.1294C25.1888 21.1494 24.4778 21.889 24.4798 22.8086ZM26.1108 31.784C25.2026 31.764 24.47 31.0064 24.468 30.087C24.4482 29.1674 25.1768 28.4058 26.0852 28.3838H26.105C27.033 28.3838 27.7854 29.1414 27.7854 30.081C27.7874 31.0204 27.037 31.782 26.1108 31.784ZM16.3442 22.8406C16.3838 23.7602 17.136 24.4778 18.0444 24.4378C18.933 24.3958 19.642 23.6362 19.6024 22.7166C19.5806 21.817 18.85 21.1174 17.9614 21.1194C17.0532 21.1594 16.3422 21.921 16.3442 22.8406ZM18.0524 31.6942C17.144 31.7342 16.3936 31.0164 16.3522 30.097C16.3522 29.1774 17.061 28.4178 17.9694 28.3758C18.858 28.3738 19.5906 29.0734 19.6104 29.971C19.6518 30.8926 18.941 31.6522 18.0524 31.6942ZM8.20865 22.9106C8.24815 23.83 9.00049 24.5498 9.90883 24.5078C10.7974 24.4678 11.5063 23.7062 11.4649 22.7866C11.4451 21.887 10.7145 21.1874 9.82391 21.1894C8.91557 21.2294 8.20667 21.991 8.20865 22.9106ZM9.91673 31.7042C9.00839 31.7462 8.25801 31.0264 8.21655 30.107C8.21457 29.1874 8.92545 28.4258 9.83379 28.3858C10.7224 28.3838 11.455 29.0834 11.4747 29.983C11.5162 30.9026 10.8073 31.6642 9.91673 31.7042Z" fill="white"/>
</svg>
