<svg width="40" height="32" viewBox="0 0 40 32" fill="none" xmlns="http://www.w3.org/2000/svg">
<path fill-rule="evenodd" clip-rule="evenodd" d="M39.5744 13.078C39.3036 13.3412 38.9362 13.4914 38.5494 13.4914C37.118 13.4914 35.9574 14.619 35.9574 15.9906C35.9574 17.3716 37.1044 18.4934 38.5222 18.5086C39.321 18.516 40 19.0572 40 19.8332V24.653C40 28.7098 36.615 32 32.4372 32H26.1316C25.4796 32 24.9516 31.487 24.9516 30.8538V26.795C24.9516 26.0058 24.3134 25.3858 23.501 25.3858C22.708 25.3858 22.0502 26.0058 22.0502 26.795V30.8538C22.0502 31.487 21.5222 32 20.8724 32H7.56286C3.40426 32 0 28.7116 0 24.653V19.8332C0 19.0572 0.67892 18.516 1.47776 18.5086C2.89748 18.4934 4.04256 17.3716 4.04256 15.9906C4.04256 14.6564 2.9207 13.6418 1.45068 13.6418C1.06382 13.6418 0.69632 13.4914 0.42554 13.2284C0.15474 12.9654 0 12.6084 0 12.2326V7.36582C0 3.31462 3.412 0 7.5822 0H20.8724C21.5222 0 22.0502 0.51298 22.0502 1.14622V5.95654C22.0502 6.72696 22.708 7.36582 23.501 7.36582C24.3134 7.36582 24.9516 6.72696 24.9516 5.95654V1.14622C24.9516 0.51298 25.4796 0 26.1316 0H32.4372C36.615 0 40 3.28832 40 7.34704V12.0822C40 12.458 39.8452 12.815 39.5744 13.078ZM23.501 21.7404C24.3134 21.7404 24.9516 21.1016 24.9516 20.3312V12.815C24.9516 12.0446 24.3134 11.4058 23.501 11.4058C22.708 11.4058 22.0502 12.0446 22.0502 12.815V20.3312C22.0502 21.1016 22.708 21.7404 23.501 21.7404Z" fill="white"/>
</svg>
