<svg width="1903" height="796" viewBox="0 0 1903 796" fill="none" xmlns="http://www.w3.org/2000/svg">
<mask id="mask0_40_352" style="mask-type:alpha" maskUnits="userSpaceOnUse" x="0" y="0" width="1903" height="796">
<rect width="1903" height="796" fill="#FEF4DE"/>
</mask>
<g mask="url(#mask0_40_352)">
<g opacity="0.2">
<path d="M329.183 90.0807L303.562 68.0208" stroke="#B76C4E" stroke-width="5" stroke-miterlimit="10" stroke-linecap="round" stroke-linejoin="round"/>
<path d="M304.238 90.8521L328.341 67.4037" stroke="#B76C4E" stroke-width="5" stroke-miterlimit="10" stroke-linecap="round" stroke-linejoin="round"/>
<path d="M1283.23 90.0807L1257.61 68.0208" stroke="#B76C4E" stroke-width="5" stroke-miterlimit="10" stroke-linecap="round" stroke-linejoin="round"/>
<path d="M1258.29 90.8521L1282.39 67.4037" stroke="#B76C4E" stroke-width="5" stroke-miterlimit="10" stroke-linecap="round" stroke-linejoin="round"/>
<path d="M358.679 428.693L333.059 406.633" stroke="#B76C4E" stroke-width="5" stroke-miterlimit="10" stroke-linecap="round" stroke-linejoin="round"/>
<path d="M333.9 429.31L358.003 405.862" stroke="#B76C4E" stroke-width="5" stroke-miterlimit="10" stroke-linecap="round" stroke-linejoin="round"/>
<path d="M1312.73 428.693L1287.11 406.633" stroke="#B76C4E" stroke-width="5" stroke-miterlimit="10" stroke-linecap="round" stroke-linejoin="round"/>
<path d="M1287.95 429.31L1312.05 405.862" stroke="#B76C4E" stroke-width="5" stroke-miterlimit="10" stroke-linecap="round" stroke-linejoin="round"/>
<path d="M45.8466 617.823L20.2266 595.763" stroke="#B76C4E" stroke-width="5" stroke-miterlimit="10" stroke-linecap="round" stroke-linejoin="round"/>
<path d="M21.0684 618.44L45.1714 594.992" stroke="#B76C4E" stroke-width="5" stroke-miterlimit="10" stroke-linecap="round" stroke-linejoin="round"/>
<path d="M999.895 617.823L974.275 595.763" stroke="#B76C4E" stroke-width="5" stroke-miterlimit="10" stroke-linecap="round" stroke-linejoin="round"/>
<path d="M975.117 618.44L999.22 594.992" stroke="#B76C4E" stroke-width="5" stroke-miterlimit="10" stroke-linecap="round" stroke-linejoin="round"/>
<path d="M34.7203 57.9935L8.93164 35.7793" stroke="#B76C4E" stroke-width="5" stroke-miterlimit="10" stroke-linecap="round" stroke-linejoin="round"/>
<path d="M9.77344 58.6105L33.8765 35.1622" stroke="#B76C4E" stroke-width="5" stroke-miterlimit="10" stroke-linecap="round" stroke-linejoin="round"/>
<path d="M988.769 57.9935L962.98 35.7793" stroke="#B76C4E" stroke-width="5" stroke-miterlimit="10" stroke-linecap="round" stroke-linejoin="round"/>
<path d="M963.822 58.6105L987.925 35.1622" stroke="#B76C4E" stroke-width="5" stroke-miterlimit="10" stroke-linecap="round" stroke-linejoin="round"/>
<path d="M948.952 89.6178L923.332 67.5578" stroke="#B76C4E" stroke-width="5" stroke-miterlimit="10" stroke-linecap="round" stroke-linejoin="round"/>
<path d="M924.008 90.2349L948.111 66.7865" stroke="#B76C4E" stroke-width="5" stroke-miterlimit="10" stroke-linecap="round" stroke-linejoin="round"/>
<path d="M1903 89.6178L1877.38 67.5578" stroke="#B76C4E" stroke-width="5" stroke-miterlimit="10" stroke-linecap="round" stroke-linejoin="round"/>
<path d="M1878.06 90.2349L1902.16 66.7865" stroke="#B76C4E" stroke-width="5" stroke-miterlimit="10" stroke-linecap="round" stroke-linejoin="round"/>
<path d="M645.724 209.636L619.936 187.576" stroke="#B76C4E" stroke-width="5" stroke-miterlimit="10" stroke-linecap="round" stroke-linejoin="round"/>
<path d="M620.777 210.253L644.88 186.805" stroke="#B76C4E" stroke-width="5" stroke-miterlimit="10" stroke-linecap="round" stroke-linejoin="round"/>
<path d="M1599.77 209.636L1573.98 187.576" stroke="#B76C4E" stroke-width="5" stroke-miterlimit="10" stroke-linecap="round" stroke-linejoin="round"/>
<path d="M1574.83 210.253L1598.93 186.805" stroke="#B76C4E" stroke-width="5" stroke-miterlimit="10" stroke-linecap="round" stroke-linejoin="round"/>
<path d="M770.96 471.58L745.34 449.52" stroke="#B76C4E" stroke-width="5" stroke-miterlimit="10" stroke-linecap="round" stroke-linejoin="round"/>
<path d="M746.182 472.351L770.285 448.748" stroke="#B76C4E" stroke-width="5" stroke-miterlimit="10" stroke-linecap="round" stroke-linejoin="round"/>
<path d="M1725.01 471.58L1699.39 449.52" stroke="#B76C4E" stroke-width="5" stroke-miterlimit="10" stroke-linecap="round" stroke-linejoin="round"/>
<path d="M1700.23 472.351L1724.33 448.748" stroke="#B76C4E" stroke-width="5" stroke-miterlimit="10" stroke-linecap="round" stroke-linejoin="round"/>
<path d="M751.07 684.929L725.281 662.869" stroke="#B76C4E" stroke-width="5" stroke-miterlimit="10" stroke-linecap="round" stroke-linejoin="round"/>
<path d="M726.123 685.7L750.226 662.098" stroke="#B76C4E" stroke-width="5" stroke-miterlimit="10" stroke-linecap="round" stroke-linejoin="round"/>
<path d="M1705.12 684.929L1679.33 662.869" stroke="#B76C4E" stroke-width="5" stroke-miterlimit="10" stroke-linecap="round" stroke-linejoin="round"/>
<path d="M1680.17 685.7L1704.27 662.098" stroke="#B76C4E" stroke-width="5" stroke-miterlimit="10" stroke-linecap="round" stroke-linejoin="round"/>
<path d="M520.083 125.277L502.432 97.6481L485.115 125.277L467.631 153.058H502.599H537.567L520.083 125.277Z" stroke="#B76C4E" stroke-width="5" stroke-miterlimit="10" stroke-linecap="round" stroke-linejoin="round"/>
<path d="M1474.13 125.277L1456.48 97.6481L1439.16 125.277L1421.68 153.058H1456.65H1491.61L1474.13 125.277Z" stroke="#B76C4E" stroke-width="5" stroke-miterlimit="10" stroke-linecap="round" stroke-linejoin="round"/>
<path d="M461.586 467.764L444.06 439.659L426.701 467.764L409.176 496.024H444.227H479.112L461.586 467.764Z" stroke="#B76C4E" stroke-width="5" stroke-miterlimit="10" stroke-linecap="round" stroke-linejoin="round"/>
<path d="M1415.63 467.764L1398.11 439.659L1380.75 467.764L1363.22 496.024H1398.28H1433.16L1415.63 467.764Z" stroke="#B76C4E" stroke-width="5" stroke-miterlimit="10" stroke-linecap="round" stroke-linejoin="round"/>
<path d="M664.91 572.929L647.166 544.746L629.421 572.929L611.676 601.111H647.166H682.655L664.91 572.929Z" stroke="#B76C4E" stroke-width="5" stroke-miterlimit="10" stroke-linecap="round" stroke-linejoin="round"/>
<path d="M1618.96 572.929L1601.21 544.746L1583.47 572.929L1565.72 601.111H1601.21H1636.7L1618.96 572.929Z" stroke="#B76C4E" stroke-width="5" stroke-miterlimit="10" stroke-linecap="round" stroke-linejoin="round"/>
<path d="M781.122 358.054L790.168 326.929L756.328 335.362L722.32 343.642L747.114 366.334L772.076 389.026L781.122 358.054Z" stroke="#B76C4E" stroke-width="5" stroke-miterlimit="10" stroke-linecap="round" stroke-linejoin="round"/>
<path d="M1735.17 358.054L1744.22 326.929L1710.38 335.362L1676.37 343.642L1701.16 366.334L1726.12 389.026L1735.17 358.054Z" stroke="#B76C4E" stroke-width="5" stroke-miterlimit="10" stroke-linecap="round" stroke-linejoin="round"/>
<path d="M199.718 -4.97398L208.764 -36.0991L174.756 -27.6662L140.916 -19.3866L165.71 3.30562L190.671 25.9978L199.718 -4.97398Z" stroke="#B76C4E" stroke-width="5" stroke-miterlimit="10" stroke-linecap="round" stroke-linejoin="round"/>
<path d="M1153.77 -4.97398L1162.81 -36.0991L1128.81 -27.6662L1094.96 -19.3866L1119.76 3.30562L1144.72 25.9978L1153.77 -4.97398Z" stroke="#B76C4E" stroke-width="5" stroke-miterlimit="10" stroke-linecap="round" stroke-linejoin="round"/>
<path d="M175.71 670.373L184.756 639.325L150.916 647.737L116.908 655.996L141.87 678.632L166.663 701.422L175.71 670.373Z" stroke="#B76C4E" stroke-width="5" stroke-miterlimit="10" stroke-linecap="round" stroke-linejoin="round"/>
<path d="M1129.76 670.373L1138.81 639.325L1104.96 647.737L1070.96 655.996L1095.92 678.632L1120.71 701.422L1129.76 670.373Z" stroke="#B76C4E" stroke-width="5" stroke-miterlimit="10" stroke-linecap="round" stroke-linejoin="round"/>
<path d="M816.702 29.7804L847.579 13.5009L816.702 -2.62357L785.994 -18.9031V13.5009V46.0599L816.702 29.7804Z" stroke="#B76C4E" stroke-width="5" stroke-miterlimit="10" stroke-linecap="round" stroke-linejoin="round"/>
<path d="M1770.75 29.7804L1801.63 13.5009L1770.75 -2.62357L1740.04 -18.9031V13.5009V46.0599L1770.75 29.7804Z" stroke="#B76C4E" stroke-width="5" stroke-miterlimit="10" stroke-linecap="round" stroke-linejoin="round"/>
<path d="M174.755 353.679L205.632 337.438L174.755 321.197L144.047 304.956V337.438V369.919L174.755 353.679Z" stroke="#B76C4E" stroke-width="5" stroke-miterlimit="10" stroke-linecap="round" stroke-linejoin="round"/>
<path d="M1128.8 353.679L1159.68 337.438L1128.8 321.197L1098.1 304.956V337.438V369.919L1128.8 353.679Z" stroke="#B76C4E" stroke-width="5" stroke-miterlimit="10" stroke-linecap="round" stroke-linejoin="round"/>
<path d="M580.362 300.18C580.362 313.927 568.244 325.019 553.223 325.019C538.203 325.019 526.084 313.927 526.084 300.18C526.084 286.433 538.203 275.341 553.223 275.341C568.244 275.341 580.362 286.433 580.362 300.18Z" stroke="#B76C4E" stroke-width="5" stroke-miterlimit="10" stroke-linecap="round" stroke-linejoin="round"/>
<path d="M1534.41 300.18C1534.41 313.927 1522.29 325.019 1507.27 325.019C1492.25 325.019 1480.13 313.927 1480.13 300.18C1480.13 286.433 1492.25 275.341 1507.27 275.341C1522.29 275.341 1534.41 286.433 1534.41 300.18Z" stroke="#B76C4E" stroke-width="5" stroke-miterlimit="10" stroke-linecap="round" stroke-linejoin="round"/>
<path d="M444.665 26.4755C444.665 39.9584 432.546 50.8366 417.526 50.8366C402.505 50.8366 390.387 39.9584 390.387 26.4755C390.387 12.9926 402.505 2.11438 417.526 2.11438C432.546 2.11438 444.665 13.1458 444.665 26.4755Z" stroke="#B76C4E" stroke-width="5" stroke-miterlimit="10" stroke-linecap="round" stroke-linejoin="round"/>
<path d="M1398.71 26.4755C1398.71 39.9584 1386.6 50.8366 1371.57 50.8366C1356.55 50.8366 1344.44 39.9584 1344.44 26.4755C1344.44 12.9926 1356.55 2.11438 1371.57 2.11438C1386.6 2.11438 1398.71 13.1458 1398.71 26.4755Z" stroke="#B76C4E" stroke-width="5" stroke-miterlimit="10" stroke-linecap="round" stroke-linejoin="round"/>
<path d="M461.367 750.621C461.367 764.104 449.482 774.982 434.75 774.982C420.019 774.982 408.133 764.104 408.133 750.621C408.133 737.138 420.019 726.26 434.75 726.26C449.314 726.26 461.367 737.138 461.367 750.621Z" stroke="#B76C4E" stroke-width="5" stroke-miterlimit="10" stroke-linecap="round" stroke-linejoin="round"/>
<path d="M1415.42 750.621C1415.42 764.104 1403.53 774.982 1388.8 774.982C1374.07 774.982 1362.18 764.104 1362.18 750.621C1362.18 737.138 1374.07 726.26 1388.8 726.26C1403.36 726.26 1415.42 737.138 1415.42 750.621Z" stroke="#B76C4E" stroke-width="5" stroke-miterlimit="10" stroke-linecap="round" stroke-linejoin="round"/>
<path d="M533.391 713.841C533.391 700.622 545.276 689.958 560.008 689.958C574.74 689.958 586.625 700.622 586.625 713.841" stroke="#B76C4E" stroke-width="5" stroke-miterlimit="10" stroke-linecap="round" stroke-linejoin="round"/>
<path d="M1487.44 713.841C1487.44 700.622 1499.33 689.958 1514.06 689.958C1528.79 689.958 1540.67 700.622 1540.67 713.841" stroke="#B76C4E" stroke-width="5" stroke-miterlimit="10" stroke-linecap="round" stroke-linejoin="round"/>
<path d="M319.408 337.438C319.408 323.691 331.294 312.599 346.026 312.599C360.757 312.599 372.643 323.691 372.643 337.438" stroke="#B76C4E" stroke-width="5" stroke-miterlimit="10" stroke-linecap="round" stroke-linejoin="round"/>
<path d="M1273.46 337.438C1273.46 323.691 1285.34 312.599 1300.07 312.599C1314.81 312.599 1326.69 323.691 1326.69 337.438" stroke="#B76C4E" stroke-width="5" stroke-miterlimit="10" stroke-linecap="round" stroke-linejoin="round"/>
<path d="M37.5781 137.772C37.5781 124.025 49.5391 112.934 64.1954 112.934C78.8518 112.934 90.8128 124.025 90.8128 137.772" stroke="#B76C4E" stroke-width="5" stroke-miterlimit="10" stroke-linecap="round" stroke-linejoin="round"/>
<path d="M991.625 137.772C991.625 124.025 1003.59 112.934 1018.24 112.934C1032.9 112.934 1044.86 124.025 1044.86 137.772" stroke="#B76C4E" stroke-width="5" stroke-miterlimit="10" stroke-linecap="round" stroke-linejoin="round"/>
<path d="M712.927 177.897C698.485 177.897 686.832 166.949 686.832 153.535C686.832 140.121 698.485 129.174 712.927 129.174" stroke="#B76C4E" stroke-width="5" stroke-miterlimit="10" stroke-linecap="round" stroke-linejoin="round"/>
<path d="M1666.98 177.897C1652.53 177.897 1640.88 166.949 1640.88 153.535C1640.88 140.121 1652.53 129.174 1666.98 129.174" stroke="#B76C4E" stroke-width="5" stroke-miterlimit="10" stroke-linecap="round" stroke-linejoin="round"/>
<path d="M66.8044 751.099C52.3617 751.099 40.709 739.937 40.709 726.26C40.709 712.583 52.3617 701.422 66.8044 701.422" stroke="#B76C4E" stroke-width="5" stroke-miterlimit="10" stroke-linecap="round" stroke-linejoin="round"/>
<path d="M1020.85 751.099C1006.41 751.099 994.758 739.937 994.758 726.26C994.758 712.583 1006.41 701.422 1020.85 701.422" stroke="#B76C4E" stroke-width="5" stroke-miterlimit="10" stroke-linecap="round" stroke-linejoin="round"/>
<path d="M80.3733 492.68C80.3733 506.163 68.4876 517.041 53.756 517.041C39.0244 517.041 27.1387 506.163 27.1387 492.68C27.1387 479.197 39.0244 468.319 53.756 468.319C68.4876 468.319 80.3733 479.197 80.3733 492.68Z" stroke="#B76C4E" stroke-width="5" stroke-miterlimit="10" stroke-linecap="round" stroke-linejoin="round"/>
<path d="M1034.42 492.68C1034.42 506.163 1022.54 517.041 1007.8 517.041C993.073 517.041 981.188 506.163 981.188 492.68C981.188 479.197 993.073 468.319 1007.8 468.319C1022.54 468.319 1034.42 479.197 1034.42 492.68Z" stroke="#B76C4E" stroke-width="5" stroke-miterlimit="10" stroke-linecap="round" stroke-linejoin="round"/>
<path d="M908.12 520.385C908.12 533.868 896.001 544.746 880.981 544.746C865.961 544.746 853.842 533.868 853.842 520.385C853.842 506.902 865.961 496.024 880.981 496.024C896.001 496.024 908.12 506.902 908.12 520.385Z" stroke="#B76C4E" stroke-width="5" stroke-miterlimit="10" stroke-linecap="round" stroke-linejoin="round"/>
<path d="M1862.17 520.385C1862.17 533.868 1850.05 544.746 1835.03 544.746C1820.01 544.746 1807.89 533.868 1807.89 520.385C1807.89 506.902 1820.01 496.024 1835.03 496.024C1850.05 496.024 1862.17 506.902 1862.17 520.385Z" stroke="#B76C4E" stroke-width="5" stroke-miterlimit="10" stroke-linecap="round" stroke-linejoin="round"/>
<path d="M887.244 129.174H834.01V177.897H887.244V129.174Z" stroke="#B76C4E" stroke-width="5" stroke-miterlimit="10" stroke-linecap="round" stroke-linejoin="round"/>
<path d="M1841.29 129.174H1788.06V177.897H1841.29V129.174Z" stroke="#B76C4E" stroke-width="5" stroke-miterlimit="10" stroke-linecap="round" stroke-linejoin="round"/>
<path d="M283.918 153.058H230.684V202.735H283.918V153.058Z" stroke="#B76C4E" stroke-width="5" stroke-miterlimit="10" stroke-linecap="round" stroke-linejoin="round"/>
<path d="M1237.97 153.058H1184.73V202.735H1237.97V153.058Z" stroke="#B76C4E" stroke-width="5" stroke-miterlimit="10" stroke-linecap="round" stroke-linejoin="round"/>
<path d="M280.787 465.453H227.553V514.175H280.787V465.453Z" stroke="#B76C4E" stroke-width="5" stroke-miterlimit="10" stroke-linecap="round" stroke-linejoin="round"/>
<path d="M1234.84 465.453H1181.6V514.175H1234.84V465.453Z" stroke="#B76C4E" stroke-width="5" stroke-miterlimit="10" stroke-linecap="round" stroke-linejoin="round"/>
<path d="M887.244 701.422H834.01V751.099H887.244V701.422Z" stroke="#B76C4E" stroke-width="5" stroke-miterlimit="10" stroke-linecap="round" stroke-linejoin="round"/>
<path d="M1841.29 701.422H1788.06V751.099H1841.29V701.422Z" stroke="#B76C4E" stroke-width="5" stroke-miterlimit="10" stroke-linecap="round" stroke-linejoin="round"/>
<path d="M535.659 417.586C524.029 417.586 526.051 398.612 511.219 398.612" stroke="#B76C4E" stroke-width="5" stroke-miterlimit="10" stroke-linecap="round" stroke-linejoin="round"/>
<path d="M584.71 417.586C573.08 417.586 575.102 398.612 560.27 398.612" stroke="#B76C4E" stroke-width="5" stroke-miterlimit="10" stroke-linecap="round" stroke-linejoin="round"/>
<path d="M535.66 417.586C547.29 417.586 545.268 398.612 560.1 398.612" stroke="#B76C4E" stroke-width="5" stroke-miterlimit="10" stroke-linecap="round" stroke-linejoin="round"/>
<path d="M584.709 417.586C596.339 417.586 594.317 398.612 609.149 398.612" stroke="#B76C4E" stroke-width="5" stroke-miterlimit="10" stroke-linecap="round" stroke-linejoin="round"/>
<path d="M1489.71 417.586C1478.08 417.586 1480.1 398.612 1465.27 398.612" stroke="#B76C4E" stroke-width="5" stroke-miterlimit="10" stroke-linecap="round" stroke-linejoin="round"/>
<path d="M1538.76 417.586C1527.13 417.586 1529.15 398.612 1514.32 398.612" stroke="#B76C4E" stroke-width="5" stroke-miterlimit="10" stroke-linecap="round" stroke-linejoin="round"/>
<path d="M1489.71 417.586C1501.34 417.586 1499.32 398.612 1514.15 398.612" stroke="#B76C4E" stroke-width="5" stroke-miterlimit="10" stroke-linecap="round" stroke-linejoin="round"/>
<path d="M1538.76 417.586C1550.39 417.586 1548.37 398.612 1563.2 398.612" stroke="#B76C4E" stroke-width="5" stroke-miterlimit="10" stroke-linecap="round" stroke-linejoin="round"/>
<path d="M675.223 769.775C663.593 769.775 665.616 750.8 650.783 750.8" stroke="#B76C4E" stroke-width="5" stroke-miterlimit="10" stroke-linecap="round" stroke-linejoin="round"/>
<path d="M724.272 769.775C712.642 769.775 714.665 750.8 699.832 750.8" stroke="#B76C4E" stroke-width="5" stroke-miterlimit="10" stroke-linecap="round" stroke-linejoin="round"/>
<path d="M675.223 769.775C686.853 769.775 684.83 750.8 699.663 750.8" stroke="#B76C4E" stroke-width="5" stroke-miterlimit="10" stroke-linecap="round" stroke-linejoin="round"/>
<path d="M724.271 769.775C735.902 769.775 733.879 750.8 748.712 750.8" stroke="#B76C4E" stroke-width="5" stroke-miterlimit="10" stroke-linecap="round" stroke-linejoin="round"/>
<path d="M1629.27 769.775C1617.64 769.775 1619.66 750.8 1604.83 750.8" stroke="#B76C4E" stroke-width="5" stroke-miterlimit="10" stroke-linecap="round" stroke-linejoin="round"/>
<path d="M1678.32 769.775C1666.69 769.775 1668.71 750.8 1653.88 750.8" stroke="#B76C4E" stroke-width="5" stroke-miterlimit="10" stroke-linecap="round" stroke-linejoin="round"/>
<path d="M1629.27 769.775C1640.9 769.775 1638.88 750.8 1653.71 750.8" stroke="#B76C4E" stroke-width="5" stroke-miterlimit="10" stroke-linecap="round" stroke-linejoin="round"/>
<path d="M1678.32 769.775C1689.95 769.775 1687.93 750.8 1702.76 750.8" stroke="#B76C4E" stroke-width="5" stroke-miterlimit="10" stroke-linecap="round" stroke-linejoin="round"/>
<path d="M742.137 262.087C730.507 262.087 732.53 243.112 717.697 243.112" stroke="#B76C4E" stroke-width="5" stroke-miterlimit="10" stroke-linecap="round" stroke-linejoin="round"/>
<path d="M791.018 262.087C779.388 262.087 781.411 243.112 766.578 243.112" stroke="#B76C4E" stroke-width="5" stroke-miterlimit="10" stroke-linecap="round" stroke-linejoin="round"/>
<path d="M742.137 262.087C753.767 262.087 751.744 243.112 766.577 243.112" stroke="#B76C4E" stroke-width="5" stroke-miterlimit="10" stroke-linecap="round" stroke-linejoin="round"/>
<path d="M791.018 262.087C802.648 262.087 800.625 243.112 815.458 243.112" stroke="#B76C4E" stroke-width="5" stroke-miterlimit="10" stroke-linecap="round" stroke-linejoin="round"/>
<path d="M1696.19 262.087C1684.56 262.087 1686.58 243.112 1671.75 243.112" stroke="#B76C4E" stroke-width="5" stroke-miterlimit="10" stroke-linecap="round" stroke-linejoin="round"/>
<path d="M1745.07 262.087C1733.44 262.087 1735.46 243.112 1720.63 243.112" stroke="#B76C4E" stroke-width="5" stroke-miterlimit="10" stroke-linecap="round" stroke-linejoin="round"/>
<path d="M1696.19 262.087C1707.82 262.087 1705.79 243.112 1720.63 243.112" stroke="#B76C4E" stroke-width="5" stroke-miterlimit="10" stroke-linecap="round" stroke-linejoin="round"/>
<path d="M1745.07 262.087C1756.7 262.087 1754.67 243.112 1769.51 243.112" stroke="#B76C4E" stroke-width="5" stroke-miterlimit="10" stroke-linecap="round" stroke-linejoin="round"/>
<path d="M60.6785 239.255C49.0483 239.255 51.0709 220.281 36.2383 220.281" stroke="#B76C4E" stroke-width="5" stroke-miterlimit="10" stroke-linecap="round" stroke-linejoin="round"/>
<path d="M109.557 239.255C97.9272 239.255 99.9499 220.281 85.1172 220.281" stroke="#B76C4E" stroke-width="5" stroke-miterlimit="10" stroke-linecap="round" stroke-linejoin="round"/>
<path d="M60.6777 239.255C72.3079 239.255 70.2853 220.281 85.1179 220.281" stroke="#B76C4E" stroke-width="5" stroke-miterlimit="10" stroke-linecap="round" stroke-linejoin="round"/>
<path d="M109.559 239.255C121.189 239.255 119.166 220.281 133.999 220.281" stroke="#B76C4E" stroke-width="5" stroke-miterlimit="10" stroke-linecap="round" stroke-linejoin="round"/>
<path d="M1014.73 239.255C1003.1 239.255 1005.12 220.281 990.287 220.281" stroke="#B76C4E" stroke-width="5" stroke-miterlimit="10" stroke-linecap="round" stroke-linejoin="round"/>
<path d="M1063.61 239.255C1051.98 239.255 1054 220.281 1039.17 220.281" stroke="#B76C4E" stroke-width="5" stroke-miterlimit="10" stroke-linecap="round" stroke-linejoin="round"/>
<path d="M1014.73 239.255C1026.36 239.255 1024.33 220.281 1039.17 220.281" stroke="#B76C4E" stroke-width="5" stroke-miterlimit="10" stroke-linecap="round" stroke-linejoin="round"/>
<path d="M1063.61 239.255C1075.24 239.255 1073.21 220.281 1088.05 220.281" stroke="#B76C4E" stroke-width="5" stroke-miterlimit="10" stroke-linecap="round" stroke-linejoin="round"/>
<path d="M539.705 -13.8945C539.705 -3.25014 518.973 -5.10133 518.973 8.47404" stroke="#B76C4E" stroke-width="5" stroke-miterlimit="10" stroke-linecap="round" stroke-linejoin="round"/>
<path d="M1493.75 -13.8945C1493.75 -3.25014 1473.02 -5.10133 1473.02 8.47404" stroke="#B76C4E" stroke-width="5" stroke-miterlimit="10" stroke-linecap="round" stroke-linejoin="round"/>
<path d="M389.523 220.743C389.523 231.388 368.791 229.536 368.791 243.112" stroke="#B76C4E" stroke-width="5" stroke-miterlimit="10" stroke-linecap="round" stroke-linejoin="round"/>
<path d="M389.523 175.852C389.523 186.496 368.791 184.645 368.791 198.221" stroke="#B76C4E" stroke-width="5" stroke-miterlimit="10" stroke-linecap="round" stroke-linejoin="round"/>
<path d="M389.523 220.743C389.523 210.099 368.791 211.95 368.791 198.375" stroke="#B76C4E" stroke-width="5" stroke-miterlimit="10" stroke-linecap="round" stroke-linejoin="round"/>
<path d="M389.523 175.852C389.523 165.208 368.791 167.059 368.791 153.484" stroke="#B76C4E" stroke-width="5" stroke-miterlimit="10" stroke-linecap="round" stroke-linejoin="round"/>
<path d="M1343.57 220.743C1343.57 231.388 1322.84 229.536 1322.84 243.112" stroke="#B76C4E" stroke-width="5" stroke-miterlimit="10" stroke-linecap="round" stroke-linejoin="round"/>
<path d="M1343.57 175.852C1343.57 186.496 1322.84 184.645 1322.84 198.221" stroke="#B76C4E" stroke-width="5" stroke-miterlimit="10" stroke-linecap="round" stroke-linejoin="round"/>
<path d="M1343.57 220.743C1343.57 210.099 1322.84 211.95 1322.84 198.375" stroke="#B76C4E" stroke-width="5" stroke-miterlimit="10" stroke-linecap="round" stroke-linejoin="round"/>
<path d="M1343.57 175.852C1343.57 165.208 1322.84 167.059 1322.84 153.484" stroke="#B76C4E" stroke-width="5" stroke-miterlimit="10" stroke-linecap="round" stroke-linejoin="round"/>
<path d="M796.746 595.455C796.746 606.099 776.014 604.248 776.014 617.823" stroke="#B76C4E" stroke-width="5" stroke-miterlimit="10" stroke-linecap="round" stroke-linejoin="round"/>
<path d="M796.746 550.718C796.746 561.362 776.014 559.511 776.014 573.086" stroke="#B76C4E" stroke-width="5" stroke-miterlimit="10" stroke-linecap="round" stroke-linejoin="round"/>
<path d="M796.746 595.455C796.746 584.81 776.014 586.662 776.014 573.086" stroke="#B76C4E" stroke-width="5" stroke-miterlimit="10" stroke-linecap="round" stroke-linejoin="round"/>
<path d="M796.746 550.718C796.746 540.073 776.014 541.925 776.014 528.349" stroke="#B76C4E" stroke-width="5" stroke-miterlimit="10" stroke-linecap="round" stroke-linejoin="round"/>
<path d="M1750.79 595.455C1750.79 606.099 1730.06 604.248 1730.06 617.823" stroke="#B76C4E" stroke-width="5" stroke-miterlimit="10" stroke-linecap="round" stroke-linejoin="round"/>
<path d="M1750.79 550.718C1750.79 561.362 1730.06 559.511 1730.06 573.086" stroke="#B76C4E" stroke-width="5" stroke-miterlimit="10" stroke-linecap="round" stroke-linejoin="round"/>
<path d="M1750.79 595.455C1750.79 584.81 1730.06 586.662 1730.06 573.086" stroke="#B76C4E" stroke-width="5" stroke-miterlimit="10" stroke-linecap="round" stroke-linejoin="round"/>
<path d="M1750.79 550.718C1750.79 540.073 1730.06 541.925 1730.06 528.349" stroke="#B76C4E" stroke-width="5" stroke-miterlimit="10" stroke-linecap="round" stroke-linejoin="round"/>
<path d="M291.427 630.936C291.427 641.58 270.695 639.729 270.695 653.304" stroke="#B76C4E" stroke-width="5" stroke-miterlimit="10" stroke-linecap="round" stroke-linejoin="round"/>
<path d="M291.427 586.045C291.427 596.689 270.695 594.838 270.695 608.413" stroke="#B76C4E" stroke-width="5" stroke-miterlimit="10" stroke-linecap="round" stroke-linejoin="round"/>
<path d="M291.427 630.936C291.427 620.291 270.695 622.143 270.695 608.567" stroke="#B76C4E" stroke-width="5" stroke-miterlimit="10" stroke-linecap="round" stroke-linejoin="round"/>
<path d="M291.427 586.045C291.427 575.4 270.695 577.251 270.695 563.676" stroke="#B76C4E" stroke-width="5" stroke-miterlimit="10" stroke-linecap="round" stroke-linejoin="round"/>
<path d="M1245.48 630.936C1245.48 641.58 1224.74 639.729 1224.74 653.304" stroke="#B76C4E" stroke-width="5" stroke-miterlimit="10" stroke-linecap="round" stroke-linejoin="round"/>
<path d="M1245.48 586.045C1245.48 596.689 1224.74 594.838 1224.74 608.413" stroke="#B76C4E" stroke-width="5" stroke-miterlimit="10" stroke-linecap="round" stroke-linejoin="round"/>
<path d="M1245.48 630.936C1245.48 620.291 1224.74 622.143 1224.74 608.567" stroke="#B76C4E" stroke-width="5" stroke-miterlimit="10" stroke-linecap="round" stroke-linejoin="round"/>
<path d="M1245.48 586.045C1245.48 575.4 1224.74 577.251 1224.74 563.676" stroke="#B76C4E" stroke-width="5" stroke-miterlimit="10" stroke-linecap="round" stroke-linejoin="round"/>
<path d="M593.932 468.319H654.473" stroke="#B76C4E" stroke-width="5" stroke-miterlimit="10" stroke-linecap="round" stroke-linejoin="round"/>
<path d="M1547.98 468.319H1608.52" stroke="#B76C4E" stroke-width="5" stroke-miterlimit="10" stroke-linecap="round" stroke-linejoin="round"/>
<path d="M0 307.823H60.5414" stroke="#B76C4E" stroke-width="5" stroke-miterlimit="10" stroke-linecap="round" stroke-linejoin="round"/>
<path d="M954.049 307.823H1014.59" stroke="#B76C4E" stroke-width="5" stroke-miterlimit="10" stroke-linecap="round" stroke-linejoin="round"/>
<path d="M599.15 50.8367H659.692" stroke="#B76C4E" stroke-width="5" stroke-miterlimit="10" stroke-linecap="round" stroke-linejoin="round"/>
<path d="M1553.2 50.8367H1613.74" stroke="#B76C4E" stroke-width="5" stroke-miterlimit="10" stroke-linecap="round" stroke-linejoin="round"/>
<path d="M241.121 751.099H301.662" stroke="#B76C4E" stroke-width="5" stroke-miterlimit="10" stroke-linecap="round" stroke-linejoin="round"/>
<path d="M1195.17 751.099H1255.71" stroke="#B76C4E" stroke-width="5" stroke-miterlimit="10" stroke-linecap="round" stroke-linejoin="round"/>
<path d="M396.65 644.101L439.447 604.932" stroke="#B76C4E" stroke-width="5" stroke-miterlimit="10" stroke-linecap="round" stroke-linejoin="round"/>
<path d="M1350.7 644.101L1393.5 604.932" stroke="#B76C4E" stroke-width="5" stroke-miterlimit="10" stroke-linecap="round" stroke-linejoin="round"/>
<path d="M867.412 366.098L910.209 326.929" stroke="#B76C4E" stroke-width="5" stroke-miterlimit="10" stroke-linecap="round" stroke-linejoin="round"/>
<path d="M1821.46 366.098L1864.26 326.929" stroke="#B76C4E" stroke-width="5" stroke-miterlimit="10" stroke-linecap="round" stroke-linejoin="round"/>
<g opacity="0.3">
<path opacity="0.3" d="M558.75 146.079L541.052 118.003L523.354 146.079L505.656 174.155H541.052L576.449 174.001L558.75 146.079Z" stroke="#B76C4E" stroke-miterlimit="10"/>
<path opacity="0.3" d="M500.096 488.549L482.397 460.472L464.868 488.549L447.17 516.625H482.566L517.794 516.471L500.096 488.549Z" stroke="#B76C4E" stroke-miterlimit="10"/>
<path opacity="0.3" d="M703.034 593.758L685.336 565.681L667.638 593.758L649.939 621.68H685.336H720.732L703.034 593.758Z" stroke="#B76C4E" stroke-miterlimit="10"/>
<path opacity="0.3" d="M819.672 378.557L828.774 347.396L794.726 355.726L760.51 364.211L785.624 387.042L810.57 409.873L819.672 378.557Z" stroke="#B76C4E" stroke-miterlimit="10"/>
<path opacity="0.3" d="M238.332 15.5703L247.434 -15.5914L213.386 -7.26102L179.17 1.22358L204.116 24.0549L229.23 46.8862L238.332 15.5703Z" stroke="#B76C4E" stroke-miterlimit="10"/>
<path opacity="0.3" d="M214.059 691.254L223.16 659.938L189.113 668.268L154.896 676.753L180.011 699.584L204.957 722.415L214.059 691.254Z" stroke="#B76C4E" stroke-miterlimit="10"/>
<path opacity="0.3" d="M855.571 50.5886L886.079 34.3907L855.571 18.1928L824.895 1.99493V34.3907V66.7865L855.571 50.5886Z" stroke="#B76C4E" stroke-miterlimit="10"/>
<path opacity="0.3" d="M213.386 373.775L243.894 357.577L213.217 341.534L182.709 325.336V357.731V389.973L213.386 373.775Z" stroke="#B76C4E" stroke-miterlimit="10"/>
<path opacity="0.3" d="M618.418 320.862C618.418 334.437 606.451 345.39 591.618 345.39C576.786 345.39 564.818 334.437 564.818 320.862C564.818 307.287 576.786 296.334 591.618 296.334C606.451 296.334 618.418 307.287 618.418 320.862Z" stroke="#B76C4E" stroke-miterlimit="10"/>
<path opacity="0.3" d="M482.903 46.8863C482.903 60.4616 470.935 71.4145 456.103 71.4145C441.27 71.4145 429.303 60.4616 429.303 46.8863C429.303 33.3109 441.27 22.358 456.103 22.358C470.935 22.358 482.903 33.3109 482.903 46.8863Z" stroke="#B76C4E" stroke-miterlimit="10"/>
<path opacity="0.3" d="M500.094 771.472C500.094 785.047 488.127 796 473.294 796C458.461 796 446.494 785.047 446.494 771.472C446.494 757.896 458.461 746.943 473.294 746.943C487.958 746.789 500.094 757.896 500.094 771.472Z" stroke="#B76C4E" stroke-miterlimit="10"/>
<path opacity="0.3" d="M571.73 734.757C571.73 721.181 583.698 710.228 598.53 710.228C613.363 710.228 625.33 721.181 625.33 734.757" stroke="#B76C4E" stroke-miterlimit="10"/>
<path opacity="0.3" d="M357.668 357.731C357.668 344.156 369.635 333.203 384.468 333.203C399.301 333.203 411.268 344.156 411.268 357.731" stroke="#B76C4E" stroke-miterlimit="10"/>
<path opacity="0.3" d="M75.5098 158.42C75.5098 144.845 87.477 133.892 102.141 133.892C116.805 133.892 128.773 144.845 128.773 158.42" stroke="#B76C4E" stroke-miterlimit="10"/>
<path opacity="0.3" d="M751.573 198.529C736.741 198.529 724.773 187.576 724.773 174.155C724.773 160.734 736.741 149.781 751.573 149.781" stroke="#B76C4E" stroke-miterlimit="10"/>
<path opacity="0.3" d="M105.679 771.317C90.8462 771.317 78.8789 760.365 78.8789 746.944C78.8789 733.522 90.8462 722.57 105.679 722.57" stroke="#B76C4E" stroke-miterlimit="10"/>
<path opacity="0.3" d="M119.164 513.077C119.164 526.652 107.197 537.605 92.3644 537.605C77.5317 537.605 65.5645 526.652 65.5645 513.077C65.5645 499.502 77.5317 488.549 92.3644 488.549C107.197 488.549 119.164 499.502 119.164 513.077Z" stroke="#B76C4E" stroke-miterlimit="10"/>
<path opacity="0.3" d="M946.254 541.153C946.254 554.729 934.287 565.681 919.454 565.681C904.621 565.681 892.654 554.729 892.654 541.153C892.654 527.578 904.621 516.625 919.454 516.625C934.287 516.625 946.254 527.578 946.254 541.153Z" stroke="#B76C4E" stroke-miterlimit="10"/>
<path opacity="0.3" d="M925.521 149.627H872.09V198.529H925.521V149.627Z" stroke="#B76C4E" stroke-miterlimit="10"/>
<path opacity="0.3" d="M322.269 174.155H268.838V223.058H322.269V174.155Z" stroke="#B76C4E" stroke-miterlimit="10"/>
<path opacity="0.3" d="M319.574 485.926H266.143V534.828H319.574V485.926Z" stroke="#B76C4E" stroke-miterlimit="10"/>
<path opacity="0.3" d="M925.521 722.415H872.09V771.317H925.521V722.415Z" stroke="#B76C4E" stroke-miterlimit="10"/>
<g opacity="0.3">
<path opacity="0.3" d="M574.091 438.258C562.46 438.258 564.483 419.283 549.65 419.283" stroke="#B76C4E" stroke-miterlimit="10"/>
<path opacity="0.3" d="M623.139 438.258C611.509 438.258 613.532 419.283 598.699 419.283" stroke="#B76C4E" stroke-miterlimit="10"/>
<path opacity="0.3" d="M574.092 438.258C585.722 438.258 583.699 419.283 598.532 419.283" stroke="#B76C4E" stroke-miterlimit="10"/>
<path opacity="0.3" d="M623.139 438.258C634.769 438.258 632.746 419.283 647.579 419.283" stroke="#B76C4E" stroke-miterlimit="10"/>
</g>
<g opacity="0.3">
<path opacity="0.3" d="M713.651 790.292C702.021 790.292 704.044 771.318 689.211 771.318" stroke="#B76C4E" stroke-miterlimit="10"/>
<path opacity="0.3" d="M762.7 790.292C751.07 790.292 753.092 771.318 738.26 771.318" stroke="#B76C4E" stroke-miterlimit="10"/>
<path opacity="0.3" d="M713.65 790.292C725.281 790.292 723.258 771.318 738.091 771.318" stroke="#B76C4E" stroke-miterlimit="10"/>
<path opacity="0.3" d="M762.699 790.292C774.329 790.292 772.307 771.318 787.139 771.318" stroke="#B76C4E" stroke-miterlimit="10"/>
</g>
<g opacity="0.3">
<path opacity="0.3" d="M780.567 282.758C768.937 282.758 770.96 263.784 756.127 263.784" stroke="#B76C4E" stroke-miterlimit="10"/>
<path opacity="0.3" d="M829.448 282.758C817.818 282.758 819.84 263.784 805.008 263.784" stroke="#B76C4E" stroke-miterlimit="10"/>
<path opacity="0.3" d="M780.566 282.758C792.197 282.758 790.174 263.784 805.007 263.784" stroke="#B76C4E" stroke-miterlimit="10"/>
<path opacity="0.3" d="M829.447 282.758C841.077 282.758 839.055 263.784 853.887 263.784" stroke="#B76C4E" stroke-miterlimit="10"/>
</g>
<g opacity="0.3">
<path opacity="0.3" d="M99.1062 259.927C87.476 259.927 89.4987 240.952 74.666 240.952" stroke="#B76C4E" stroke-miterlimit="10"/>
<path opacity="0.3" d="M148.153 259.927C136.523 259.927 138.546 240.952 123.713 240.952" stroke="#B76C4E" stroke-miterlimit="10"/>
<path opacity="0.3" d="M99.1055 259.927C110.736 259.927 108.713 240.952 123.546 240.952" stroke="#B76C4E" stroke-miterlimit="10"/>
<path opacity="0.3" d="M148.152 259.927C159.783 259.927 157.76 240.952 172.593 240.952" stroke="#B76C4E" stroke-miterlimit="10"/>
</g>
<g opacity="0.3">
<path opacity="0.3" d="M578.134 6.77716C578.134 17.4215 557.402 15.5703 557.402 29.1457" stroke="#B76C4E" stroke-miterlimit="10"/>
<path opacity="0.3" d="M578.134 6.77714C578.134 -3.86718 557.402 -2.016 557.402 -15.5914" stroke="#B76C4E" stroke-miterlimit="10"/>
</g>
<g opacity="0.3">
<path opacity="0.3" d="M427.955 241.415C427.955 252.06 407.223 250.208 407.223 263.784" stroke="#B76C4E" stroke-miterlimit="10"/>
<path opacity="0.3" d="M427.955 196.524C427.955 207.168 407.223 205.317 407.223 218.892" stroke="#B76C4E" stroke-miterlimit="10"/>
<path opacity="0.3" d="M427.955 241.415C427.955 230.771 407.223 232.622 407.223 219.047" stroke="#B76C4E" stroke-miterlimit="10"/>
<path opacity="0.3" d="M427.955 196.524C427.955 185.88 407.223 187.731 407.223 174.155" stroke="#B76C4E" stroke-miterlimit="10"/>
</g>
<g opacity="0.3">
<path opacity="0.3" d="M835.177 616.126C835.177 626.771 814.445 624.919 814.445 638.495" stroke="#B76C4E" stroke-miterlimit="10"/>
<path opacity="0.3" d="M835.177 571.235C835.177 581.879 814.445 580.028 814.445 593.603" stroke="#B76C4E" stroke-miterlimit="10"/>
<path opacity="0.3" d="M835.177 616.126C835.177 605.482 814.445 607.333 814.445 593.758" stroke="#B76C4E" stroke-miterlimit="10"/>
<path opacity="0.3" d="M835.177 571.235C835.177 560.591 814.445 562.442 814.445 548.866" stroke="#B76C4E" stroke-miterlimit="10"/>
</g>
<g opacity="0.3">
<path opacity="0.3" d="M329.855 651.453C329.855 662.097 309.123 660.246 309.123 673.822" stroke="#B76C4E" stroke-miterlimit="10"/>
<path opacity="0.3" d="M329.855 606.562C329.855 617.206 309.123 615.355 309.123 628.93" stroke="#B76C4E" stroke-miterlimit="10"/>
<path opacity="0.3" d="M329.855 651.453C329.855 640.809 309.123 642.66 309.123 629.085" stroke="#B76C4E" stroke-miterlimit="10"/>
<path opacity="0.3" d="M329.855 606.562C329.855 595.918 309.123 597.769 309.123 584.193" stroke="#B76C4E" stroke-miterlimit="10"/>
</g>
<path opacity="0.3" d="M632.744 488.549H693.255" stroke="#B76C4E" stroke-miterlimit="10"/>
<path opacity="0.3" d="M38.4277 328.575H98.9383" stroke="#B76C4E" stroke-miterlimit="10"/>
<path opacity="0.3" d="M637.297 71.4145H697.807" stroke="#B76C4E" stroke-miterlimit="10"/>
<path opacity="0.3" d="M279.457 771.318H339.968" stroke="#B76C4E" stroke-miterlimit="10"/>
<path opacity="0.3" d="M434.695 664.411L477.508 625.228" stroke="#B76C4E" stroke-miterlimit="10"/>
<path opacity="0.3" d="M905.801 386.733L948.613 347.704" stroke="#B76C4E" stroke-miterlimit="10"/>
</g>
<g opacity="0.3">
<path opacity="0.3" d="M1512.8 146.079L1495.1 118.003L1477.4 146.079L1459.71 174.155H1495.1L1530.5 174.001L1512.8 146.079Z" stroke="#B76C4E" stroke-miterlimit="10"/>
<path opacity="0.3" d="M1454.14 488.549L1436.45 460.472L1418.92 488.549L1401.22 516.625H1436.61L1471.84 516.471L1454.14 488.549Z" stroke="#B76C4E" stroke-miterlimit="10"/>
<path opacity="0.3" d="M1657.08 593.758L1639.38 565.681L1621.69 593.758L1603.99 621.68H1639.38H1674.78L1657.08 593.758Z" stroke="#B76C4E" stroke-miterlimit="10"/>
<path opacity="0.3" d="M1773.72 378.557L1782.82 347.396L1748.77 355.726L1714.56 364.211L1739.67 387.042L1764.62 409.873L1773.72 378.557Z" stroke="#B76C4E" stroke-miterlimit="10"/>
<path opacity="0.3" d="M1192.38 15.5703L1201.48 -15.5914L1167.43 -7.26102L1133.22 1.22358L1158.16 24.0549L1183.28 46.8862L1192.38 15.5703Z" stroke="#B76C4E" stroke-miterlimit="10"/>
<path opacity="0.3" d="M1168.11 691.254L1177.21 659.938L1143.16 668.268L1108.95 676.753L1134.06 699.584L1159.01 722.415L1168.11 691.254Z" stroke="#B76C4E" stroke-miterlimit="10"/>
<path opacity="0.3" d="M1809.62 50.5886L1840.13 34.3907L1809.62 18.1928L1778.94 1.99493V34.3907V66.7865L1809.62 50.5886Z" stroke="#B76C4E" stroke-miterlimit="10"/>
<path opacity="0.3" d="M1167.43 373.775L1197.94 357.577L1167.27 341.534L1136.76 325.336V357.731V389.973L1167.43 373.775Z" stroke="#B76C4E" stroke-miterlimit="10"/>
<path opacity="0.3" d="M1572.47 320.862C1572.47 334.437 1560.5 345.39 1545.67 345.39C1530.83 345.39 1518.87 334.437 1518.87 320.862C1518.87 307.287 1530.83 296.334 1545.67 296.334C1560.5 296.334 1572.47 307.287 1572.47 320.862Z" stroke="#B76C4E" stroke-miterlimit="10"/>
<path opacity="0.3" d="M1436.95 46.8863C1436.95 60.4616 1424.98 71.4145 1410.15 71.4145C1395.32 71.4145 1383.35 60.4616 1383.35 46.8863C1383.35 33.3109 1395.32 22.358 1410.15 22.358C1424.98 22.358 1436.95 33.3109 1436.95 46.8863Z" stroke="#B76C4E" stroke-miterlimit="10"/>
<path opacity="0.3" d="M1454.14 771.472C1454.14 785.047 1442.18 796 1427.34 796C1412.51 796 1400.54 785.047 1400.54 771.472C1400.54 757.896 1412.51 746.943 1427.34 746.943C1442.01 746.789 1454.14 757.896 1454.14 771.472Z" stroke="#B76C4E" stroke-miterlimit="10"/>
<path opacity="0.3" d="M1525.78 734.757C1525.78 721.181 1537.75 710.228 1552.58 710.228C1567.41 710.228 1579.38 721.181 1579.38 734.757" stroke="#B76C4E" stroke-miterlimit="10"/>
<path opacity="0.3" d="M1311.72 357.731C1311.72 344.156 1323.68 333.203 1338.52 333.203C1353.35 333.203 1365.32 344.156 1365.32 357.731" stroke="#B76C4E" stroke-miterlimit="10"/>
<path opacity="0.3" d="M1029.56 158.42C1029.56 144.845 1041.53 133.892 1056.19 133.892C1070.85 133.892 1082.82 144.845 1082.82 158.42" stroke="#B76C4E" stroke-miterlimit="10"/>
<path opacity="0.3" d="M1705.62 198.529C1690.79 198.529 1678.82 187.576 1678.82 174.155C1678.82 160.734 1690.79 149.781 1705.62 149.781" stroke="#B76C4E" stroke-miterlimit="10"/>
<path opacity="0.3" d="M1059.73 771.317C1044.9 771.317 1032.93 760.365 1032.93 746.944C1032.93 733.522 1044.9 722.57 1059.73 722.57" stroke="#B76C4E" stroke-miterlimit="10"/>
<path opacity="0.3" d="M1073.21 513.077C1073.21 526.652 1061.25 537.605 1046.41 537.605C1031.58 537.605 1019.61 526.652 1019.61 513.077C1019.61 499.502 1031.58 488.549 1046.41 488.549C1061.25 488.549 1073.21 499.502 1073.21 513.077Z" stroke="#B76C4E" stroke-miterlimit="10"/>
<path opacity="0.3" d="M1900.3 541.153C1900.3 554.729 1888.34 565.681 1873.5 565.681C1858.67 565.681 1846.7 554.729 1846.7 541.153C1846.7 527.578 1858.67 516.625 1873.5 516.625C1888.34 516.625 1900.3 527.578 1900.3 541.153Z" stroke="#B76C4E" stroke-miterlimit="10"/>
<path opacity="0.3" d="M1879.57 149.627H1826.14V198.529H1879.57V149.627Z" stroke="#B76C4E" stroke-miterlimit="10"/>
<path opacity="0.3" d="M1276.32 174.155H1222.89V223.058H1276.32V174.155Z" stroke="#B76C4E" stroke-miterlimit="10"/>
<path opacity="0.3" d="M1273.62 485.926H1220.19V534.828H1273.62V485.926Z" stroke="#B76C4E" stroke-miterlimit="10"/>
<path opacity="0.3" d="M1879.57 722.415H1826.14V771.317H1879.57V722.415Z" stroke="#B76C4E" stroke-miterlimit="10"/>
<g opacity="0.3">
<path opacity="0.3" d="M1528.14 438.258C1516.51 438.258 1518.53 419.283 1503.7 419.283" stroke="#B76C4E" stroke-miterlimit="10"/>
<path opacity="0.3" d="M1577.19 438.258C1565.56 438.258 1567.58 419.283 1552.75 419.283" stroke="#B76C4E" stroke-miterlimit="10"/>
<path opacity="0.3" d="M1528.14 438.258C1539.77 438.258 1537.75 419.283 1552.58 419.283" stroke="#B76C4E" stroke-miterlimit="10"/>
<path opacity="0.3" d="M1577.19 438.258C1588.82 438.258 1586.8 419.283 1601.63 419.283" stroke="#B76C4E" stroke-miterlimit="10"/>
</g>
<g opacity="0.3">
<path opacity="0.3" d="M1667.7 790.292C1656.07 790.292 1658.09 771.318 1643.26 771.318" stroke="#B76C4E" stroke-miterlimit="10"/>
<path opacity="0.3" d="M1716.75 790.292C1705.12 790.292 1707.14 771.318 1692.31 771.318" stroke="#B76C4E" stroke-miterlimit="10"/>
<path opacity="0.3" d="M1667.7 790.292C1679.33 790.292 1677.31 771.318 1692.14 771.318" stroke="#B76C4E" stroke-miterlimit="10"/>
<path opacity="0.3" d="M1716.75 790.292C1728.38 790.292 1726.36 771.318 1741.19 771.318" stroke="#B76C4E" stroke-miterlimit="10"/>
</g>
<g opacity="0.3">
<path opacity="0.3" d="M1734.62 282.758C1722.99 282.758 1725.01 263.784 1710.18 263.784" stroke="#B76C4E" stroke-miterlimit="10"/>
<path opacity="0.3" d="M1783.49 282.758C1771.86 282.758 1773.89 263.784 1759.05 263.784" stroke="#B76C4E" stroke-miterlimit="10"/>
<path opacity="0.3" d="M1734.62 282.758C1746.25 282.758 1744.22 263.784 1759.06 263.784" stroke="#B76C4E" stroke-miterlimit="10"/>
<path opacity="0.3" d="M1783.5 282.758C1795.13 282.758 1793.1 263.784 1807.94 263.784" stroke="#B76C4E" stroke-miterlimit="10"/>
</g>
<g opacity="0.3">
<path opacity="0.3" d="M1053.16 259.927C1041.52 259.927 1043.55 240.952 1028.71 240.952" stroke="#B76C4E" stroke-miterlimit="10"/>
<path opacity="0.3" d="M1102.2 259.927C1090.57 259.927 1092.59 240.952 1077.76 240.952" stroke="#B76C4E" stroke-miterlimit="10"/>
<path opacity="0.3" d="M1053.15 259.927C1064.78 259.927 1062.76 240.952 1077.59 240.952" stroke="#B76C4E" stroke-miterlimit="10"/>
<path opacity="0.3" d="M1102.2 259.927C1113.83 259.927 1111.81 240.952 1126.64 240.952" stroke="#B76C4E" stroke-miterlimit="10"/>
</g>
<g opacity="0.3">
<path opacity="0.3" d="M1532.18 6.77716C1532.18 17.4215 1511.45 15.5703 1511.45 29.1457" stroke="#B76C4E" stroke-miterlimit="10"/>
<path opacity="0.3" d="M1532.18 6.77714C1532.18 -3.86718 1511.45 -2.016 1511.45 -15.5914" stroke="#B76C4E" stroke-miterlimit="10"/>
</g>
<g opacity="0.3">
<path opacity="0.3" d="M1382 241.415C1382 252.06 1361.27 250.208 1361.27 263.784" stroke="#B76C4E" stroke-miterlimit="10"/>
<path opacity="0.3" d="M1382 196.524C1382 207.168 1361.27 205.317 1361.27 218.892" stroke="#B76C4E" stroke-miterlimit="10"/>
<path opacity="0.3" d="M1382 241.415C1382 230.771 1361.27 232.622 1361.27 219.047" stroke="#B76C4E" stroke-miterlimit="10"/>
<path opacity="0.3" d="M1382 196.524C1382 185.88 1361.27 187.731 1361.27 174.155" stroke="#B76C4E" stroke-miterlimit="10"/>
</g>
<g opacity="0.3">
<path opacity="0.3" d="M1789.23 616.126C1789.23 626.771 1768.49 624.919 1768.49 638.495" stroke="#B76C4E" stroke-miterlimit="10"/>
<path opacity="0.3" d="M1789.23 571.235C1789.23 581.879 1768.49 580.028 1768.49 593.603" stroke="#B76C4E" stroke-miterlimit="10"/>
<path opacity="0.3" d="M1789.23 616.126C1789.23 605.482 1768.49 607.333 1768.49 593.758" stroke="#B76C4E" stroke-miterlimit="10"/>
<path opacity="0.3" d="M1789.23 571.235C1789.23 560.591 1768.49 562.442 1768.49 548.866" stroke="#B76C4E" stroke-miterlimit="10"/>
</g>
<g opacity="0.3">
<path opacity="0.3" d="M1283.9 651.453C1283.9 662.097 1263.17 660.246 1263.17 673.822" stroke="#B76C4E" stroke-miterlimit="10"/>
<path opacity="0.3" d="M1283.9 606.562C1283.9 617.206 1263.17 615.355 1263.17 628.93" stroke="#B76C4E" stroke-miterlimit="10"/>
<path opacity="0.3" d="M1283.9 651.453C1283.9 640.809 1263.17 642.66 1263.17 629.085" stroke="#B76C4E" stroke-miterlimit="10"/>
<path opacity="0.3" d="M1283.9 606.562C1283.9 595.918 1263.17 597.769 1263.17 584.193" stroke="#B76C4E" stroke-miterlimit="10"/>
</g>
<path opacity="0.3" d="M1586.79 488.549H1647.3" stroke="#B76C4E" stroke-miterlimit="10"/>
<path opacity="0.3" d="M992.477 328.575H1052.99" stroke="#B76C4E" stroke-miterlimit="10"/>
<path opacity="0.3" d="M1591.35 71.4145H1651.86" stroke="#B76C4E" stroke-miterlimit="10"/>
<path opacity="0.3" d="M1233.51 771.318H1294.02" stroke="#B76C4E" stroke-miterlimit="10"/>
<path opacity="0.3" d="M1388.74 664.411L1431.56 625.228" stroke="#B76C4E" stroke-miterlimit="10"/>
<path opacity="0.3" d="M1859.85 386.733L1902.66 347.704" stroke="#B76C4E" stroke-miterlimit="10"/>
</g>
<path d="M550.412 598.701C545.561 601.452 539.037 600.229 536.026 595.645C533.015 591.214 534.353 585.254 539.372 582.504C544.223 579.753 550.747 580.975 553.758 585.56C556.769 589.838 555.263 595.798 550.412 598.701Z" stroke="#B76C4E" stroke-width="5" stroke-miterlimit="10" stroke-linecap="round" stroke-linejoin="round"/>
<path d="M1504.46 598.701C1499.61 601.452 1493.09 600.229 1490.07 595.645C1487.06 591.214 1488.4 585.254 1493.42 582.504C1498.27 579.753 1504.8 580.975 1507.81 585.56C1510.82 589.838 1509.31 595.798 1504.46 598.701Z" stroke="#B76C4E" stroke-width="5" stroke-miterlimit="10" stroke-linecap="round" stroke-linejoin="round"/>
<path d="M466.908 333.117C462.057 335.868 455.533 334.645 452.522 330.061C449.511 325.63 450.849 319.67 455.868 316.92C460.719 314.169 467.243 315.392 470.254 319.976C473.265 324.407 471.76 330.367 466.908 333.117Z" stroke="#B76C4E" stroke-width="5" stroke-miterlimit="10" stroke-linecap="round" stroke-linejoin="round"/>
<path d="M1420.96 333.117C1416.1 335.868 1409.58 334.645 1406.57 330.061C1403.56 325.63 1404.9 319.67 1409.91 316.92C1414.77 314.169 1421.29 315.392 1424.3 319.976C1427.31 324.407 1425.81 330.367 1420.96 333.117Z" stroke="#B76C4E" stroke-width="5" stroke-miterlimit="10" stroke-linecap="round" stroke-linejoin="round"/>
<path d="M86.7132 415.204C81.6194 418.092 74.7692 416.808 71.6075 411.995C68.4459 407.342 69.8511 401.084 75.1205 398.196C80.2142 395.308 87.0645 396.592 90.2261 401.405C93.3877 406.058 91.8069 412.155 86.7132 415.204Z" stroke="#B76C4E" stroke-width="5" stroke-miterlimit="10" stroke-linecap="round" stroke-linejoin="round"/>
<path d="M1040.76 415.204C1035.67 418.092 1028.82 416.808 1025.66 411.995C1022.49 407.342 1023.9 401.084 1029.17 398.196C1034.26 395.308 1041.11 396.592 1044.27 401.405C1047.44 406.058 1045.86 412.155 1040.76 415.204Z" stroke="#B76C4E" stroke-width="5" stroke-miterlimit="10" stroke-linecap="round" stroke-linejoin="round"/>
<path d="M194.471 110.524C189.62 113.274 183.096 112.052 180.085 107.467C177.073 103.036 178.412 97.0766 183.43 94.326C188.281 91.5755 194.805 92.798 197.817 97.3822C200.828 101.814 199.322 107.62 194.471 110.524Z" stroke="#B76C4E" stroke-width="5" stroke-miterlimit="10" stroke-linecap="round" stroke-linejoin="round"/>
<path d="M1148.52 110.524C1143.67 113.274 1137.14 112.052 1134.13 107.467C1131.12 103.036 1132.46 97.0766 1137.48 94.326C1142.33 91.5755 1148.85 92.798 1151.87 97.3822C1154.88 101.814 1153.37 107.62 1148.52 110.524Z" stroke="#B76C4E" stroke-width="5" stroke-miterlimit="10" stroke-linecap="round" stroke-linejoin="round"/>
<path d="M775.877 105.747C771.026 108.497 764.502 107.275 761.491 102.691C758.48 98.2593 759.818 92.2998 764.836 89.5493C769.688 86.7988 776.212 88.0212 779.223 92.6055C782.234 97.0369 780.728 102.844 775.877 105.747Z" stroke="#B76C4E" stroke-width="5" stroke-miterlimit="10" stroke-linecap="round" stroke-linejoin="round"/>
<path d="M1729.93 105.747C1725.07 108.497 1718.55 107.275 1715.54 102.691C1712.53 98.2593 1713.87 92.2998 1718.89 89.5493C1723.74 86.7988 1730.26 88.0212 1733.27 92.6055C1736.28 97.0369 1734.78 102.844 1729.93 105.747Z" stroke="#B76C4E" stroke-width="5" stroke-miterlimit="10" stroke-linecap="round" stroke-linejoin="round"/>
<path d="M925.056 450.551C920.231 453.439 913.742 452.156 910.748 447.342C907.753 442.689 909.084 436.432 914.075 433.544C918.9 430.656 925.388 431.939 928.383 436.753C931.544 441.406 930.047 447.503 925.056 450.551Z" stroke="#B76C4E" stroke-width="5" stroke-miterlimit="10" stroke-linecap="round" stroke-linejoin="round"/>
<path d="M1879.1 450.551C1874.28 453.439 1867.79 452.156 1864.8 447.342C1861.8 442.689 1863.13 436.432 1868.12 433.544C1872.95 430.656 1879.44 431.939 1882.43 436.753C1885.59 441.406 1884.1 447.503 1879.1 450.551Z" stroke="#B76C4E" stroke-width="5" stroke-miterlimit="10" stroke-linecap="round" stroke-linejoin="round"/>
</g>
</g>
</svg>
